<svg width="350" height="211" viewBox="0 0 350 211" fill="none" xmlns="http://www.w3.org/2000/svg">
<path d="M25.1267 204.27C23.1347 204.27 21.5927 203.712 20.5007 202.596C19.4207 201.48 18.8807 199.908 18.8807 197.88C18.8807 195.852 19.4207 194.28 20.5007 193.164C21.5807 192.048 23.1167 191.49 25.1087 191.49C25.8767 191.49 26.5967 191.568 27.2687 191.724C27.9407 191.88 28.5047 192.108 28.9607 192.408C29.0567 192.468 29.1047 192.534 29.1047 192.606C29.1047 192.654 29.0867 192.714 29.0507 192.786L28.6727 193.416C28.6247 193.512 28.5707 193.56 28.5107 193.56C28.4507 193.56 28.3907 193.536 28.3307 193.488C27.9707 193.272 27.5267 193.098 26.9987 192.966C26.4707 192.822 25.8827 192.75 25.2347 192.75C23.7587 192.75 22.5947 193.176 21.7427 194.028C20.9027 194.868 20.4827 196.152 20.4827 197.88C20.4827 199.632 20.9147 200.928 21.7787 201.768C22.6427 202.596 23.8067 203.01 25.2707 203.01C25.9907 203.01 26.6147 202.95 27.1427 202.83C27.6707 202.698 28.1447 202.506 28.5647 202.254C28.6247 202.206 28.6907 202.182 28.7627 202.182C28.8227 202.182 28.8767 202.224 28.9247 202.308L29.3207 202.992C29.3567 203.04 29.3747 203.088 29.3747 203.136C29.3747 203.172 29.3567 203.208 29.3207 203.244C29.2967 203.268 29.2547 203.298 29.1947 203.334C28.2587 203.958 26.9027 204.27 25.1267 204.27ZM33.8002 204.27C32.6002 204.27 31.6462 203.922 30.9382 203.226C30.2302 202.518 29.8762 201.516 29.8762 200.22C29.8762 199.2 30.0862 198.306 30.5062 197.538C30.9382 196.758 31.5562 196.158 32.3602 195.738C33.1642 195.306 34.1062 195.09 35.1862 195.09C35.9422 195.09 36.6382 195.192 37.2742 195.396C37.9102 195.588 38.4442 195.834 38.8762 196.134V203.55C38.8762 203.706 38.8402 203.82 38.7682 203.892C38.6962 203.964 38.5762 204 38.4082 204H37.8502C37.7182 204 37.6222 203.97 37.5622 203.91C37.5022 203.85 37.4602 203.754 37.4362 203.622L37.3462 202.83C36.9622 203.334 36.4822 203.7 35.9062 203.928C35.3302 204.156 34.6282 204.27 33.8002 204.27ZM34.4122 203.028C34.8922 203.028 35.3542 202.932 35.7982 202.74C36.2422 202.548 36.6022 202.272 36.8782 201.912C37.1542 201.54 37.2922 201.114 37.2922 200.634V196.764C36.6922 196.464 35.9782 196.314 35.1502 196.314C34.0462 196.314 33.1582 196.656 32.4862 197.34C31.8142 198.012 31.4782 198.942 31.4782 200.13C31.4782 201.126 31.7182 201.858 32.1982 202.326C32.6902 202.794 33.4282 203.028 34.4122 203.028ZM41.4908 204C41.1188 204 40.9328 203.82 40.9328 203.46V195.81C40.9328 195.642 40.9568 195.528 41.0048 195.468C41.0648 195.396 41.1788 195.36 41.3468 195.36H41.9408C42.2048 195.36 42.3368 195.486 42.3368 195.738V196.566C43.1888 195.582 44.4248 195.09 46.0448 195.09C47.0288 195.09 47.8088 195.348 48.3848 195.864C48.9728 196.368 49.2668 197.136 49.2668 198.168V203.46C49.2668 203.64 49.2248 203.778 49.1408 203.874C49.0568 203.958 48.9188 204 48.7268 204H48.1868C47.8148 204 47.6288 203.82 47.6288 203.46V198.258C47.6288 197.55 47.4608 197.052 47.1248 196.764C46.8008 196.476 46.2728 196.332 45.5408 196.332C45.0488 196.332 44.5688 196.428 44.1008 196.62C43.6448 196.8 43.2728 197.058 42.9848 197.394C42.7088 197.73 42.5708 198.114 42.5708 198.546V203.46C42.5708 203.64 42.5288 203.778 42.4448 203.874C42.3608 203.958 42.2228 204 42.0308 204H41.4908ZM55.8512 204.27C54.1712 204.27 52.9172 203.892 52.0892 203.136C51.2732 202.368 50.8652 201.21 50.8652 199.662C50.8652 198.762 51.0392 197.97 51.3872 197.286C51.7472 196.59 52.2512 196.05 52.8992 195.666C53.5472 195.282 54.3032 195.09 55.1672 195.09C56.6072 195.09 57.6392 195.426 58.2632 196.098V192.3C58.2632 192.12 58.3052 191.988 58.3892 191.904C58.4732 191.808 58.6112 191.76 58.8032 191.76H59.3252C59.6972 191.76 59.8832 191.94 59.8832 192.3V203.136C59.4512 203.46 58.8692 203.73 58.1372 203.946C57.4052 204.162 56.6432 204.27 55.8512 204.27ZM55.8872 203.028C56.8952 203.028 57.6872 202.842 58.2632 202.47V198.42C58.2632 197.736 58.0112 197.22 57.5072 196.872C57.0032 196.512 56.3672 196.332 55.5992 196.332C54.5552 196.332 53.7692 196.638 53.2412 197.25C52.7252 197.85 52.4672 198.684 52.4672 199.752C52.4672 200.916 52.7492 201.756 53.3132 202.272C53.8772 202.776 54.7352 203.028 55.8872 203.028ZM66.0497 204.27C64.5257 204.27 63.3557 203.862 62.5397 203.046C61.7237 202.218 61.3157 201.096 61.3157 199.68C61.3157 198.264 61.7237 197.148 62.5397 196.332C63.3557 195.504 64.5257 195.09 66.0497 195.09C67.5617 195.09 68.7257 195.504 69.5417 196.332C70.3697 197.148 70.7837 198.264 70.7837 199.68C70.7837 201.096 70.3697 202.218 69.5417 203.046C68.7257 203.862 67.5617 204.27 66.0497 204.27ZM66.0497 203.01C67.0577 203.01 67.8257 202.728 68.3537 202.164C68.8937 201.588 69.1637 200.76 69.1637 199.68C69.1637 198.612 68.8997 197.796 68.3717 197.232C67.8437 196.656 67.0697 196.368 66.0497 196.368C65.0297 196.368 64.2497 196.656 63.7097 197.232C63.1817 197.796 62.9177 198.612 62.9177 199.68C62.9177 200.748 63.1817 201.57 63.7097 202.146C64.2497 202.722 65.0297 203.01 66.0497 203.01ZM73.0358 204C72.6638 204 72.4778 203.82 72.4778 203.46V195.81C72.4778 195.642 72.5018 195.528 72.5498 195.468C72.6098 195.396 72.7238 195.36 72.8918 195.36H73.4498C73.5818 195.36 73.6718 195.39 73.7198 195.45C73.7798 195.51 73.8158 195.606 73.8278 195.738L73.8458 196.602C74.1938 196.122 74.6018 195.75 75.0698 195.486C75.5378 195.222 76.1018 195.09 76.7618 195.09C77.2898 195.09 77.7578 195.222 78.1658 195.486C78.5738 195.75 78.8498 196.128 78.9938 196.62C79.3058 196.14 79.7138 195.768 80.2178 195.504C80.7218 195.228 81.3038 195.09 81.9638 195.09C82.7798 195.09 83.4338 195.342 83.9258 195.846C84.4178 196.338 84.6638 197.082 84.6638 198.078V203.46C84.6638 203.82 84.4778 204 84.1058 204H83.6378C83.4458 204 83.3078 203.958 83.2238 203.874C83.1398 203.778 83.0978 203.64 83.0978 203.46V198.168C83.0978 197.508 82.9598 197.04 82.6838 196.764C82.4198 196.476 82.0178 196.332 81.4778 196.332C80.8658 196.332 80.3558 196.536 79.9478 196.944C79.5398 197.34 79.3358 197.856 79.3358 198.492V203.46C79.3358 203.82 79.1558 204 78.7958 204H78.3458C78.1538 204 78.0158 203.958 77.9318 203.874C77.8478 203.778 77.8058 203.64 77.8058 203.46V198.042C77.8058 197.454 77.6798 197.022 77.4278 196.746C77.1758 196.47 76.7918 196.332 76.2758 196.332C75.6398 196.332 75.1058 196.542 74.6738 196.962C74.2538 197.382 74.0438 197.922 74.0438 198.582V203.46C74.0438 203.64 74.0018 203.778 73.9178 203.874C73.8338 203.958 73.6958 204 73.5038 204H73.0358ZM90.6518 204.27C89.8718 204.27 89.1098 204.162 88.3658 203.946C87.6338 203.73 87.0518 203.46 86.6198 203.136V192.3C86.6198 191.94 86.7998 191.76 87.1598 191.76H87.6998C87.8918 191.76 88.0298 191.808 88.1138 191.904C88.1978 191.988 88.2398 192.12 88.2398 192.3V196.098C88.6118 195.762 89.0738 195.51 89.6258 195.342C90.1898 195.174 90.8078 195.09 91.4798 195.09C92.7998 195.09 93.8198 195.462 94.5398 196.206C95.2718 196.938 95.6378 197.976 95.6378 199.32C95.6378 200.892 95.2178 202.11 94.3778 202.974C93.5498 203.838 92.3078 204.27 90.6518 204.27ZM90.5978 203.028C91.7618 203.028 92.6198 202.728 93.1718 202.128C93.7358 201.528 94.0178 200.622 94.0178 199.41C94.0178 198.354 93.7838 197.58 93.3158 197.088C92.8598 196.584 92.0978 196.332 91.0298 196.332C90.3098 196.332 89.6618 196.512 89.0858 196.872C88.5218 197.22 88.2398 197.736 88.2398 198.42V202.47C88.4918 202.638 88.8338 202.776 89.2658 202.884C89.7098 202.98 90.1538 203.028 90.5978 203.028ZM101.906 204.27C101.006 204.27 100.184 204.114 99.44 203.802C98.696 203.49 98.096 203.004 97.64 202.344C97.196 201.672 96.974 200.838 96.974 199.842C96.974 198.282 97.376 197.1 98.18 196.296C98.996 195.492 100.148 195.09 101.636 195.09C103.112 195.09 104.222 195.48 104.966 196.26C105.71 197.028 106.082 198.174 106.082 199.698C106.082 200.022 105.926 200.184 105.614 200.184H98.54C98.54 201.132 98.852 201.852 99.476 202.344C100.1 202.836 100.964 203.082 102.068 203.082C103.112 203.082 104.012 202.848 104.768 202.38C104.84 202.344 104.894 202.326 104.93 202.326C105.002 202.326 105.056 202.368 105.092 202.452L105.434 203.046C105.458 203.082 105.47 203.13 105.47 203.19C105.47 203.274 105.422 203.346 105.326 203.406C104.846 203.706 104.33 203.922 103.778 204.054C103.238 204.198 102.614 204.27 101.906 204.27ZM104.57 199.086C104.57 198.186 104.324 197.49 103.832 196.998C103.34 196.494 102.608 196.242 101.636 196.242C100.64 196.242 99.872 196.5 99.332 197.016C98.804 197.532 98.54 198.222 98.54 199.086H104.57ZM107.659 206.142C107.491 206.142 107.407 206.076 107.407 205.944L107.443 205.782L108.433 202.758C108.481 202.614 108.535 202.518 108.595 202.47C108.667 202.422 108.787 202.398 108.955 202.398H109.639C109.855 202.398 109.963 202.47 109.963 202.614C109.963 202.674 109.945 202.752 109.909 202.848L108.613 205.89C108.541 206.058 108.391 206.142 108.163 206.142H107.659ZM122.423 204.27C121.223 204.27 120.269 203.922 119.561 203.226C118.853 202.518 118.499 201.516 118.499 200.22C118.499 199.2 118.709 198.306 119.129 197.538C119.561 196.758 120.179 196.158 120.983 195.738C121.787 195.306 122.729 195.09 123.809 195.09C124.565 195.09 125.261 195.192 125.897 195.396C126.533 195.588 127.067 195.834 127.499 196.134V203.55C127.499 203.706 127.463 203.82 127.391 203.892C127.319 203.964 127.199 204 127.031 204H126.473C126.341 204 126.245 203.97 126.185 203.91C126.125 203.85 126.083 203.754 126.059 203.622L125.969 202.83C125.585 203.334 125.105 203.7 124.529 203.928C123.953 204.156 123.251 204.27 122.423 204.27ZM123.035 203.028C123.515 203.028 123.977 202.932 124.421 202.74C124.865 202.548 125.225 202.272 125.501 201.912C125.777 201.54 125.915 201.114 125.915 200.634V196.764C125.315 196.464 124.601 196.314 123.773 196.314C122.669 196.314 121.781 196.656 121.109 197.34C120.437 198.012 120.101 198.942 120.101 200.13C120.101 201.126 120.341 201.858 120.821 202.326C121.313 202.794 122.051 203.028 123.035 203.028ZM130.114 204C129.742 204 129.556 203.82 129.556 203.46V195.81C129.556 195.642 129.58 195.528 129.628 195.468C129.688 195.396 129.802 195.36 129.97 195.36H130.564C130.828 195.36 130.96 195.486 130.96 195.738V196.566C131.812 195.582 133.048 195.09 134.668 195.09C135.652 195.09 136.432 195.348 137.008 195.864C137.596 196.368 137.89 197.136 137.89 198.168V203.46C137.89 203.64 137.848 203.778 137.764 203.874C137.68 203.958 137.542 204 137.35 204H136.81C136.438 204 136.252 203.82 136.252 203.46V198.258C136.252 197.55 136.084 197.052 135.748 196.764C135.424 196.476 134.896 196.332 134.164 196.332C133.672 196.332 133.192 196.428 132.724 196.62C132.268 196.8 131.896 197.058 131.608 197.394C131.332 197.73 131.194 198.114 131.194 198.546V203.46C131.194 203.64 131.152 203.778 131.068 203.874C130.984 203.958 130.846 204 130.654 204H130.114ZM144.024 194.01C143.844 194.01 143.754 193.938 143.754 193.794C143.754 193.77 143.766 193.71 143.79 193.614L144.672 191.166C144.72 191.034 144.774 190.944 144.834 190.896C144.906 190.848 145.026 190.824 145.194 190.824H146.112C146.34 190.824 146.454 190.896 146.454 191.04C146.454 191.064 146.43 191.136 146.382 191.256L145.194 193.704C145.134 193.824 145.062 193.908 144.978 193.956C144.906 193.992 144.792 194.01 144.636 194.01H144.024ZM143.412 204.27C142.212 204.27 141.258 203.922 140.55 203.226C139.842 202.518 139.488 201.516 139.488 200.22C139.488 199.2 139.698 198.306 140.118 197.538C140.55 196.758 141.168 196.158 141.972 195.738C142.776 195.306 143.718 195.09 144.798 195.09C145.554 195.09 146.25 195.192 146.886 195.396C147.522 195.588 148.056 195.834 148.488 196.134V203.55C148.488 203.706 148.452 203.82 148.38 203.892C148.308 203.964 148.188 204 148.02 204H147.462C147.33 204 147.234 203.97 147.174 203.91C147.114 203.85 147.072 203.754 147.048 203.622L146.958 202.83C146.574 203.334 146.094 203.7 145.518 203.928C144.942 204.156 144.24 204.27 143.412 204.27ZM144.024 203.028C144.504 203.028 144.966 202.932 145.41 202.74C145.854 202.548 146.214 202.272 146.49 201.912C146.766 201.54 146.904 201.114 146.904 200.634V196.764C146.304 196.464 145.59 196.314 144.762 196.314C143.658 196.314 142.77 196.656 142.098 197.34C141.426 198.012 141.09 198.942 141.09 200.13C141.09 201.126 141.33 201.858 141.81 202.326C142.302 202.794 143.04 203.028 144.024 203.028ZM151.085 204C150.725 204 150.545 203.82 150.545 203.46V192.3C150.545 191.94 150.725 191.76 151.085 191.76H151.643C151.835 191.76 151.973 191.808 152.057 191.904C152.141 191.988 152.183 192.12 152.183 192.3V203.46C152.183 203.64 152.141 203.778 152.057 203.874C151.973 203.958 151.835 204 151.643 204H151.085ZM154.966 193.56C154.738 193.56 154.558 193.494 154.426 193.362C154.294 193.218 154.228 193.044 154.228 192.84V192.48C154.228 192.276 154.294 192.108 154.426 191.976C154.558 191.832 154.738 191.76 154.966 191.76H155.47C155.698 191.76 155.878 191.832 156.01 191.976C156.142 192.108 156.208 192.276 156.208 192.48V192.84C156.208 193.044 156.142 193.218 156.01 193.362C155.878 193.494 155.698 193.56 155.47 193.56H154.966ZM154.948 204C154.756 204 154.618 203.958 154.534 203.874C154.45 203.778 154.408 203.64 154.408 203.46V195.9C154.408 195.72 154.45 195.588 154.534 195.504C154.618 195.408 154.756 195.36 154.948 195.36H155.488C155.86 195.36 156.046 195.54 156.046 195.9V203.46C156.046 203.82 155.86 204 155.488 204H154.948ZM161.791 204.27C161.119 204.27 160.447 204.198 159.775 204.054C159.115 203.91 158.557 203.688 158.101 203.388C157.981 203.316 157.921 203.244 157.921 203.172C157.921 203.136 157.939 203.082 157.975 203.01L158.353 202.362C158.413 202.266 158.467 202.218 158.515 202.218C158.527 202.218 158.581 202.242 158.677 202.29C159.049 202.53 159.493 202.722 160.009 202.866C160.525 202.998 161.035 203.064 161.539 203.064C162.331 203.064 162.913 202.974 163.285 202.794C163.657 202.602 163.843 202.284 163.843 201.84C163.843 201.552 163.765 201.324 163.609 201.156C163.465 200.976 163.219 200.82 162.871 200.688C162.535 200.544 161.995 200.364 161.251 200.148C160.567 199.944 160.021 199.74 159.613 199.536C159.205 199.332 158.881 199.068 158.641 198.744C158.401 198.408 158.281 197.988 158.281 197.484C158.281 196.692 158.599 196.098 159.235 195.702C159.883 195.294 160.729 195.09 161.773 195.09C162.445 195.09 163.069 195.168 163.645 195.324C164.221 195.468 164.707 195.672 165.103 195.936C165.223 196.008 165.283 196.086 165.283 196.17C165.283 196.206 165.265 196.26 165.229 196.332L164.869 196.926C164.821 197.01 164.773 197.052 164.725 197.052C164.665 197.052 164.605 197.028 164.545 196.98C163.837 196.524 162.961 196.296 161.917 196.296C161.197 196.296 160.675 196.386 160.351 196.566C160.027 196.746 159.865 197.064 159.865 197.52C159.865 197.808 159.943 198.042 160.099 198.222C160.267 198.39 160.489 198.534 160.765 198.654C161.041 198.762 161.467 198.9 162.043 199.068L162.745 199.284C163.441 199.5 163.981 199.722 164.365 199.95C164.761 200.178 165.043 200.442 165.211 200.742C165.379 201.042 165.463 201.42 165.463 201.876C165.463 202.596 165.151 203.178 164.527 203.622C163.903 204.054 162.991 204.27 161.791 204.27ZM167.887 193.56C167.659 193.56 167.479 193.494 167.347 193.362C167.215 193.218 167.149 193.044 167.149 192.84V192.48C167.149 192.276 167.215 192.108 167.347 191.976C167.479 191.832 167.659 191.76 167.887 191.76H168.391C168.619 191.76 168.799 191.832 168.931 191.976C169.063 192.108 169.129 192.276 169.129 192.48V192.84C169.129 193.044 169.063 193.218 168.931 193.362C168.799 193.494 168.619 193.56 168.391 193.56H167.887ZM167.869 204C167.677 204 167.539 203.958 167.455 203.874C167.371 203.778 167.329 203.64 167.329 203.46V195.9C167.329 195.72 167.371 195.588 167.455 195.504C167.539 195.408 167.677 195.36 167.869 195.36H168.409C168.781 195.36 168.967 195.54 168.967 195.9V203.46C168.967 203.82 168.781 204 168.409 204H167.869ZM174.711 204.27C174.039 204.27 173.367 204.198 172.695 204.054C172.035 203.91 171.477 203.688 171.021 203.388C170.901 203.316 170.841 203.244 170.841 203.172C170.841 203.136 170.859 203.082 170.895 203.01L171.273 202.362C171.333 202.266 171.387 202.218 171.435 202.218C171.447 202.218 171.501 202.242 171.597 202.29C171.969 202.53 172.413 202.722 172.929 202.866C173.445 202.998 173.955 203.064 174.459 203.064C175.251 203.064 175.833 202.974 176.205 202.794C176.577 202.602 176.763 202.284 176.763 201.84C176.763 201.552 176.685 201.324 176.529 201.156C176.385 200.976 176.139 200.82 175.791 200.688C175.455 200.544 174.915 200.364 174.171 200.148C173.487 199.944 172.941 199.74 172.533 199.536C172.125 199.332 171.801 199.068 171.561 198.744C171.321 198.408 171.201 197.988 171.201 197.484C171.201 196.692 171.519 196.098 172.155 195.702C172.803 195.294 173.649 195.09 174.693 195.09C175.365 195.09 175.989 195.168 176.565 195.324C177.141 195.468 177.627 195.672 178.023 195.936C178.143 196.008 178.203 196.086 178.203 196.17C178.203 196.206 178.185 196.26 178.149 196.332L177.789 196.926C177.741 197.01 177.693 197.052 177.645 197.052C177.585 197.052 177.525 197.028 177.465 196.98C176.757 196.524 175.881 196.296 174.837 196.296C174.117 196.296 173.595 196.386 173.271 196.566C172.947 196.746 172.785 197.064 172.785 197.52C172.785 197.808 172.863 198.042 173.019 198.222C173.187 198.39 173.409 198.534 173.685 198.654C173.961 198.762 174.387 198.9 174.963 199.068L175.665 199.284C176.361 199.5 176.901 199.722 177.285 199.95C177.681 200.178 177.963 200.442 178.131 200.742C178.299 201.042 178.383 201.42 178.383 201.876C178.383 202.596 178.071 203.178 177.447 203.622C176.823 204.054 175.911 204.27 174.711 204.27ZM189.14 206.808C188.72 206.808 188.33 206.742 187.97 206.61C187.61 206.49 187.31 206.328 187.07 206.124C186.986 206.052 186.944 205.992 186.944 205.944C186.944 205.908 186.962 205.86 186.998 205.8L187.394 205.134C187.442 205.05 187.496 205.008 187.556 205.008C187.616 205.008 187.676 205.032 187.736 205.08C187.94 205.248 188.144 205.368 188.348 205.44C188.564 205.524 188.822 205.566 189.122 205.566C189.518 205.566 189.836 205.422 190.076 205.134C190.316 204.858 190.574 204.372 190.85 203.676L187.142 195.774C187.106 195.702 187.088 195.636 187.088 195.576C187.088 195.432 187.172 195.36 187.34 195.36H188.294C188.45 195.36 188.552 195.378 188.6 195.414C188.66 195.45 188.72 195.528 188.78 195.648L191.642 202.056L194.486 195.648C194.546 195.528 194.6 195.45 194.648 195.414C194.708 195.378 194.816 195.36 194.972 195.36H195.926C196.094 195.36 196.178 195.432 196.178 195.576C196.178 195.636 196.16 195.702 196.124 195.774L192.722 203.046C192.23 204.09 191.834 204.858 191.534 205.35C191.246 205.842 190.916 206.208 190.544 206.448C190.184 206.688 189.716 206.808 189.14 206.808ZM209.332 204.27C207.652 204.27 206.398 203.892 205.57 203.136C204.754 202.368 204.346 201.21 204.346 199.662C204.346 198.762 204.52 197.97 204.868 197.286C205.228 196.59 205.732 196.05 206.38 195.666C207.028 195.282 207.784 195.09 208.648 195.09C210.088 195.09 211.12 195.426 211.744 196.098V192.3C211.744 192.12 211.786 191.988 211.87 191.904C211.954 191.808 212.092 191.76 212.284 191.76H212.806C213.178 191.76 213.364 191.94 213.364 192.3V203.136C212.932 203.46 212.35 203.73 211.618 203.946C210.886 204.162 210.124 204.27 209.332 204.27ZM209.368 203.028C210.376 203.028 211.168 202.842 211.744 202.47V198.42C211.744 197.736 211.492 197.22 210.988 196.872C210.484 196.512 209.848 196.332 209.08 196.332C208.036 196.332 207.25 196.638 206.722 197.25C206.206 197.85 205.948 198.684 205.948 199.752C205.948 200.916 206.23 201.756 206.794 202.272C207.358 202.776 208.216 203.028 209.368 203.028ZM219.531 204.27C218.007 204.27 216.837 203.862 216.021 203.046C215.205 202.218 214.797 201.096 214.797 199.68C214.797 198.264 215.205 197.148 216.021 196.332C216.837 195.504 218.007 195.09 219.531 195.09C221.043 195.09 222.207 195.504 223.023 196.332C223.851 197.148 224.265 198.264 224.265 199.68C224.265 201.096 223.851 202.218 223.023 203.046C222.207 203.862 221.043 204.27 219.531 204.27ZM219.531 203.01C220.539 203.01 221.307 202.728 221.835 202.164C222.375 201.588 222.645 200.76 222.645 199.68C222.645 198.612 222.381 197.796 221.853 197.232C221.325 196.656 220.551 196.368 219.531 196.368C218.511 196.368 217.731 196.656 217.191 197.232C216.663 197.796 216.399 198.612 216.399 199.68C216.399 200.748 216.663 201.57 217.191 202.146C217.731 202.722 218.511 203.01 219.531 203.01ZM230.128 204.27C228.568 204.27 227.344 203.88 226.456 203.1C225.58 202.308 225.142 201.18 225.142 199.716C225.142 198.804 225.34 198 225.736 197.304C226.144 196.608 226.72 196.068 227.464 195.684C228.208 195.288 229.072 195.09 230.056 195.09C230.788 195.09 231.406 195.156 231.91 195.288C232.426 195.42 232.912 195.648 233.368 195.972C233.464 196.044 233.512 196.116 233.512 196.188C233.512 196.212 233.488 196.272 233.44 196.368L233.08 196.98C233.032 197.088 232.978 197.142 232.918 197.142C232.882 197.142 232.822 197.112 232.738 197.052C232.378 196.8 231.988 196.614 231.568 196.494C231.148 196.374 230.656 196.314 230.092 196.314C229.036 196.314 228.214 196.62 227.626 197.232C227.038 197.832 226.744 198.66 226.744 199.716C226.744 200.844 227.038 201.678 227.626 202.218C228.214 202.758 229.09 203.028 230.254 203.028C230.83 203.028 231.322 202.968 231.73 202.848C232.138 202.716 232.516 202.53 232.864 202.29C232.948 202.23 233.008 202.2 233.044 202.2C233.104 202.2 233.158 202.254 233.206 202.362L233.584 202.992C233.632 203.088 233.656 203.142 233.656 203.154C233.656 203.226 233.602 203.298 233.494 203.37C233.038 203.67 232.54 203.892 232 204.036C231.46 204.192 230.836 204.27 230.128 204.27ZM238.559 204.27C237.575 204.27 236.777 204 236.165 203.46C235.565 202.908 235.265 202.104 235.265 201.048V195.9C235.265 195.54 235.445 195.36 235.805 195.36H236.363C236.555 195.36 236.693 195.408 236.777 195.504C236.861 195.588 236.903 195.72 236.903 195.9V201.03C236.903 201.726 237.083 202.236 237.443 202.56C237.815 202.872 238.361 203.028 239.081 203.028C239.849 203.028 240.497 202.818 241.025 202.398C241.553 201.978 241.817 201.438 241.817 200.778V195.9C241.817 195.54 242.003 195.36 242.375 195.36H242.915C243.107 195.36 243.245 195.408 243.329 195.504C243.413 195.588 243.455 195.72 243.455 195.9V203.55C243.455 203.718 243.425 203.838 243.365 203.91C243.317 203.97 243.215 204 243.059 204H242.465C242.333 204 242.243 203.97 242.195 203.91C242.147 203.85 242.117 203.754 242.105 203.622L242.051 202.758C241.643 203.25 241.157 203.628 240.593 203.892C240.041 204.144 239.363 204.27 238.559 204.27ZM246.064 204C245.692 204 245.506 203.82 245.506 203.46V195.81C245.506 195.642 245.53 195.528 245.578 195.468C245.638 195.396 245.752 195.36 245.92 195.36H246.478C246.61 195.36 246.7 195.39 246.748 195.45C246.808 195.51 246.844 195.606 246.856 195.738L246.874 196.602C247.222 196.122 247.63 195.75 248.098 195.486C248.566 195.222 249.13 195.09 249.79 195.09C250.318 195.09 250.786 195.222 251.194 195.486C251.602 195.75 251.878 196.128 252.022 196.62C252.334 196.14 252.742 195.768 253.246 195.504C253.75 195.228 254.332 195.09 254.992 195.09C255.808 195.09 256.462 195.342 256.954 195.846C257.446 196.338 257.692 197.082 257.692 198.078V203.46C257.692 203.82 257.506 204 257.134 204H256.666C256.474 204 256.336 203.958 256.252 203.874C256.168 203.778 256.126 203.64 256.126 203.46V198.168C256.126 197.508 255.988 197.04 255.712 196.764C255.448 196.476 255.046 196.332 254.506 196.332C253.894 196.332 253.384 196.536 252.976 196.944C252.568 197.34 252.364 197.856 252.364 198.492V203.46C252.364 203.82 252.184 204 251.824 204H251.374C251.182 204 251.044 203.958 250.96 203.874C250.876 203.778 250.834 203.64 250.834 203.46V198.042C250.834 197.454 250.708 197.022 250.456 196.746C250.204 196.47 249.82 196.332 249.304 196.332C248.668 196.332 248.134 196.542 247.702 196.962C247.282 197.382 247.072 197.922 247.072 198.582V203.46C247.072 203.64 247.03 203.778 246.946 203.874C246.862 203.958 246.724 204 246.532 204H246.064ZM264.22 204.27C263.32 204.27 262.498 204.114 261.754 203.802C261.01 203.49 260.41 203.004 259.954 202.344C259.51 201.672 259.288 200.838 259.288 199.842C259.288 198.282 259.69 197.1 260.494 196.296C261.31 195.492 262.462 195.09 263.95 195.09C265.426 195.09 266.536 195.48 267.28 196.26C268.024 197.028 268.396 198.174 268.396 199.698C268.396 200.022 268.24 200.184 267.928 200.184H260.854C260.854 201.132 261.166 201.852 261.79 202.344C262.414 202.836 263.278 203.082 264.382 203.082C265.426 203.082 266.326 202.848 267.082 202.38C267.154 202.344 267.208 202.326 267.244 202.326C267.316 202.326 267.37 202.368 267.406 202.452L267.748 203.046C267.772 203.082 267.784 203.13 267.784 203.19C267.784 203.274 267.736 203.346 267.64 203.406C267.16 203.706 266.644 203.922 266.092 204.054C265.552 204.198 264.928 204.27 264.22 204.27ZM266.884 199.086C266.884 198.186 266.638 197.49 266.146 196.998C265.654 196.494 264.922 196.242 263.95 196.242C262.954 196.242 262.186 196.5 261.646 197.016C261.118 197.532 260.854 198.222 260.854 199.086H266.884ZM270.639 204C270.267 204 270.081 203.82 270.081 203.46V195.81C270.081 195.642 270.105 195.528 270.153 195.468C270.213 195.396 270.327 195.36 270.495 195.36H271.089C271.353 195.36 271.485 195.486 271.485 195.738V196.566C272.337 195.582 273.573 195.09 275.193 195.09C276.177 195.09 276.957 195.348 277.533 195.864C278.121 196.368 278.415 197.136 278.415 198.168V203.46C278.415 203.64 278.373 203.778 278.289 203.874C278.205 203.958 278.067 204 277.875 204H277.335C276.963 204 276.777 203.82 276.777 203.46V198.258C276.777 197.55 276.609 197.052 276.273 196.764C275.949 196.476 275.421 196.332 274.689 196.332C274.197 196.332 273.717 196.428 273.249 196.62C272.793 196.8 272.421 197.058 272.133 197.394C271.857 197.73 271.719 198.114 271.719 198.546V203.46C271.719 203.64 271.677 203.778 271.593 203.874C271.509 203.958 271.371 204 271.179 204H270.639ZM284.136 204.27C283.176 204.27 282.462 204.006 281.994 203.478C281.526 202.938 281.292 202.2 281.292 201.264V196.638H280.122C279.93 196.638 279.804 196.614 279.744 196.566C279.684 196.506 279.654 196.386 279.654 196.206V195.828C279.654 195.648 279.684 195.528 279.744 195.468C279.804 195.396 279.93 195.36 280.122 195.36H281.292V194.1C281.292 193.872 281.322 193.668 281.382 193.488C281.454 193.308 281.574 193.056 281.742 192.732C281.802 192.636 281.856 192.57 281.904 192.534C281.952 192.498 282.03 192.48 282.138 192.48H282.498C282.654 192.48 282.762 192.522 282.822 192.606C282.894 192.678 282.93 192.792 282.93 192.948V195.36H285.396C285.588 195.36 285.714 195.396 285.774 195.468C285.834 195.528 285.864 195.648 285.864 195.828V196.206C285.864 196.386 285.834 196.506 285.774 196.566C285.714 196.614 285.588 196.638 285.396 196.638H282.93V201.21C282.93 201.846 283.038 202.308 283.254 202.596C283.482 202.872 283.866 203.01 284.406 203.01C284.706 203.01 284.97 202.974 285.198 202.902C285.426 202.818 285.666 202.692 285.918 202.524C285.99 202.488 286.044 202.47 286.08 202.47C286.14 202.47 286.194 202.512 286.242 202.596L286.62 203.208C286.656 203.28 286.674 203.34 286.674 203.388C286.674 203.472 286.626 203.544 286.53 203.604C285.894 204.048 285.096 204.27 284.136 204.27ZM290.96 204.27C289.76 204.27 288.806 203.922 288.098 203.226C287.39 202.518 287.036 201.516 287.036 200.22C287.036 199.2 287.246 198.306 287.666 197.538C288.098 196.758 288.716 196.158 289.52 195.738C290.324 195.306 291.266 195.09 292.346 195.09C293.102 195.09 293.798 195.192 294.434 195.396C295.07 195.588 295.604 195.834 296.036 196.134V203.55C296.036 203.706 296 203.82 295.928 203.892C295.856 203.964 295.736 204 295.568 204H295.01C294.878 204 294.782 203.97 294.722 203.91C294.662 203.85 294.62 203.754 294.596 203.622L294.506 202.83C294.122 203.334 293.642 203.7 293.066 203.928C292.49 204.156 291.788 204.27 290.96 204.27ZM291.572 203.028C292.052 203.028 292.514 202.932 292.958 202.74C293.402 202.548 293.762 202.272 294.038 201.912C294.314 201.54 294.452 201.114 294.452 200.634V196.764C293.852 196.464 293.138 196.314 292.31 196.314C291.206 196.314 290.318 196.656 289.646 197.34C288.974 198.012 288.638 198.942 288.638 200.13C288.638 201.126 288.878 201.858 289.358 202.326C289.85 202.794 290.588 203.028 291.572 203.028ZM302.455 204.27C300.895 204.27 299.671 203.88 298.783 203.1C297.907 202.308 297.469 201.18 297.469 199.716C297.469 198.804 297.667 198 298.063 197.304C298.471 196.608 299.047 196.068 299.791 195.684C300.535 195.288 301.399 195.09 302.383 195.09C303.115 195.09 303.733 195.156 304.237 195.288C304.753 195.42 305.239 195.648 305.695 195.972C305.791 196.044 305.839 196.116 305.839 196.188C305.839 196.212 305.815 196.272 305.767 196.368L305.407 196.98C305.359 197.088 305.305 197.142 305.245 197.142C305.209 197.142 305.149 197.112 305.065 197.052C304.705 196.8 304.315 196.614 303.895 196.494C303.475 196.374 302.983 196.314 302.419 196.314C301.363 196.314 300.541 196.62 299.953 197.232C299.365 197.832 299.071 198.66 299.071 199.716C299.071 200.844 299.365 201.678 299.953 202.218C300.541 202.758 301.417 203.028 302.581 203.028C303.157 203.028 303.649 202.968 304.057 202.848C304.465 202.716 304.843 202.53 305.191 202.29C305.275 202.23 305.335 202.2 305.371 202.2C305.431 202.2 305.485 202.254 305.533 202.362L305.911 202.992C305.959 203.088 305.983 203.142 305.983 203.154C305.983 203.226 305.929 203.298 305.821 203.37C305.365 203.67 304.867 203.892 304.327 204.036C303.787 204.192 303.163 204.27 302.455 204.27ZM308.42 193.56C308.192 193.56 308.012 193.494 307.88 193.362C307.748 193.218 307.682 193.044 307.682 192.84V192.48C307.682 192.276 307.748 192.108 307.88 191.976C308.012 191.832 308.192 191.76 308.42 191.76H308.924C309.152 191.76 309.332 191.832 309.464 191.976C309.596 192.108 309.662 192.276 309.662 192.48V192.84C309.662 193.044 309.596 193.218 309.464 193.362C309.332 193.494 309.152 193.56 308.924 193.56H308.42ZM308.402 204C308.21 204 308.072 203.958 307.988 203.874C307.904 203.778 307.862 203.64 307.862 203.46V195.9C307.862 195.72 307.904 195.588 307.988 195.504C308.072 195.408 308.21 195.36 308.402 195.36H308.942C309.314 195.36 309.5 195.54 309.5 195.9V203.46C309.5 203.82 309.314 204 308.942 204H308.402ZM315.425 194.37C315.245 194.37 315.155 194.298 315.155 194.154C315.155 194.13 315.167 194.07 315.191 193.974L316.073 191.526C316.121 191.394 316.175 191.304 316.235 191.256C316.307 191.208 316.427 191.184 316.595 191.184H317.513C317.741 191.184 317.855 191.256 317.855 191.4C317.855 191.424 317.831 191.496 317.783 191.616L316.595 194.064C316.535 194.184 316.463 194.268 316.379 194.316C316.307 194.352 316.193 194.37 316.037 194.37H315.425ZM316.091 204.27C314.567 204.27 313.397 203.862 312.581 203.046C311.765 202.218 311.357 201.096 311.357 199.68C311.357 198.264 311.765 197.148 312.581 196.332C313.397 195.504 314.567 195.09 316.091 195.09C317.603 195.09 318.767 195.504 319.583 196.332C320.411 197.148 320.825 198.264 320.825 199.68C320.825 201.096 320.411 202.218 319.583 203.046C318.767 203.862 317.603 204.27 316.091 204.27ZM316.091 203.01C317.099 203.01 317.867 202.728 318.395 202.164C318.935 201.588 319.205 200.76 319.205 199.68C319.205 198.612 318.941 197.796 318.413 197.232C317.885 196.656 317.111 196.368 316.091 196.368C315.071 196.368 314.291 196.656 313.751 197.232C313.223 197.796 312.959 198.612 312.959 199.68C312.959 200.748 313.223 201.57 313.751 202.146C314.291 202.722 315.071 203.01 316.091 203.01ZM323.077 204C322.705 204 322.519 203.82 322.519 203.46V195.81C322.519 195.642 322.543 195.528 322.591 195.468C322.651 195.396 322.765 195.36 322.933 195.36H323.527C323.791 195.36 323.923 195.486 323.923 195.738V196.566C324.775 195.582 326.011 195.09 327.631 195.09C328.615 195.09 329.395 195.348 329.971 195.864C330.559 196.368 330.853 197.136 330.853 198.168V203.46C330.853 203.64 330.811 203.778 330.727 203.874C330.643 203.958 330.505 204 330.313 204H329.773C329.401 204 329.215 203.82 329.215 203.46V198.258C329.215 197.55 329.047 197.052 328.711 196.764C328.387 196.476 327.859 196.332 327.127 196.332C326.635 196.332 326.155 196.428 325.687 196.62C325.231 196.8 324.859 197.058 324.571 197.394C324.295 197.73 324.157 198.114 324.157 198.546V203.46C324.157 203.64 324.115 203.778 324.031 203.874C323.947 203.958 323.809 204 323.617 204H323.077Z" fill="#B5B5B5"/>
<path d="M15.6954 180.736C10.6987 180.736 6.83368 179.365 4.10021 176.624C1.36674 173.882 0 169.963 0 164.868C0 159.772 1.33734 155.854 4.01203 153.112C6.71611 150.371 10.5665 149 15.5631 149C17.5618 149 19.4135 149.209 21.1183 149.626C22.823 150.043 24.2632 150.639 25.4389 151.414C25.7034 151.592 25.8357 151.786 25.8357 151.995C25.8357 152.174 25.7622 152.382 25.6153 152.621L24.3808 154.766C24.2044 155.034 24.0428 155.168 23.8958 155.168C23.7783 155.168 23.5725 155.094 23.2786 154.945C21.4269 153.813 19.0608 153.246 16.1804 153.246C12.8591 153.246 10.2579 154.215 8.37677 156.152C6.49567 158.089 5.55512 160.994 5.55512 164.868C5.55512 168.801 6.52506 171.737 8.46494 173.673C10.4048 175.581 13.0207 176.534 16.3127 176.534C19.3694 176.534 21.8825 175.953 23.8517 174.791C24.1457 174.642 24.3367 174.567 24.4249 174.567C24.6012 174.567 24.7776 174.701 24.9539 174.97L26.3207 177.294C26.4089 177.473 26.4529 177.622 26.4529 177.741C26.4529 177.92 26.2913 178.113 25.968 178.322C23.7048 179.931 20.2806 180.736 15.6954 180.736Z" fill="#E0E0E0"/>
<path d="M37.7323 180.736C34.8519 180.736 32.5593 179.857 30.8545 178.099C29.1498 176.311 28.2974 173.808 28.2974 170.589C28.2974 168.086 28.8412 165.881 29.9287 163.974C31.0162 162.037 32.5593 160.547 34.5579 159.504C36.586 158.461 38.9374 157.94 41.6121 157.94C45.3449 157.94 48.5045 158.834 51.091 160.622V178.858C51.091 179.305 50.9882 179.618 50.7824 179.797C50.6061 179.976 50.2828 180.065 49.8125 180.065H47.3876C47.0643 180.065 46.8145 180.006 46.6381 179.886C46.4912 179.737 46.3883 179.514 46.3295 179.216L45.9768 177.473C45.0656 178.605 43.934 179.44 42.582 179.976C41.2594 180.482 39.6428 180.736 37.7323 180.736ZM39.8485 176.668C41.4063 176.668 42.7731 176.206 43.9487 175.283C45.1538 174.359 45.7564 173.137 45.7564 171.617V162.901C45.1391 162.573 44.5072 162.35 43.8606 162.231C43.2433 162.082 42.4791 162.007 41.568 162.007C39.246 162.007 37.3796 162.752 35.9688 164.242C34.5579 165.732 33.8525 167.788 33.8525 170.41C33.8525 172.556 34.3375 174.135 35.3074 175.148C36.3068 176.162 37.8205 176.668 39.8485 176.668Z" fill="#E0E0E0"/>
<path d="M58.42 180.065C57.8322 180.065 57.406 179.931 57.1415 179.663C56.8769 179.395 56.7447 178.993 56.7447 178.456V159.817C56.7447 159.37 56.8181 159.057 56.9651 158.878C57.1121 158.7 57.4207 158.61 57.891 158.61H60.404C61.0506 158.61 61.3886 158.908 61.418 159.504L61.5062 161.292C63.5049 159.057 66.3706 157.94 70.1034 157.94C72.4842 157.94 74.3947 158.595 75.8349 159.906C77.3045 161.188 78.0393 163.125 78.0393 165.717V178.456C78.0393 178.993 77.907 179.395 77.6425 179.663C77.4074 179.931 76.9959 180.065 76.408 180.065H74.0713C73.4835 180.065 73.0573 179.931 72.7928 179.663C72.5283 179.395 72.396 178.993 72.396 178.456V166.075C72.396 164.615 72.058 163.587 71.382 162.991C70.7353 162.365 69.6772 162.052 68.2076 162.052C66.6498 162.052 65.2831 162.484 64.1074 163.348C62.9611 164.183 62.388 165.27 62.388 166.611V178.456C62.388 178.993 62.2557 179.395 61.9912 179.663C61.756 179.931 61.3298 180.065 60.7126 180.065H58.42Z" fill="#E0E0E0"/>
<path d="M95.0883 180.736C86.741 180.736 82.5673 176.922 82.5673 169.293C82.5673 167.058 82.9935 165.091 83.8458 163.393C84.6982 161.665 85.918 160.324 87.5052 159.37C89.1217 158.416 91.0175 157.94 93.1926 157.94C96.2787 157.94 98.5125 158.64 99.894 160.04V151.324C99.894 150.758 100.026 150.341 100.291 150.073C100.555 149.805 100.981 149.67 101.569 149.67H103.774C104.362 149.67 104.788 149.805 105.052 150.073C105.317 150.341 105.449 150.758 105.449 151.324V177.83C104.332 178.665 102.833 179.365 100.952 179.931C99.071 180.468 97.1164 180.736 95.0883 180.736ZM95.2206 176.668C97.1899 176.668 98.7477 176.311 99.894 175.595V166.477C99.894 165.017 99.3943 163.914 98.395 163.169C97.3956 162.424 96.1024 162.052 94.5152 162.052C92.3696 162.052 90.7677 162.707 89.7096 164.019C88.6515 165.33 88.1224 167.133 88.1224 169.427C88.1224 171.99 88.7103 173.837 89.8859 174.97C91.0616 176.102 92.8399 176.668 95.2206 176.668Z" fill="#E0E0E0"/>
<path d="M121.521 180.736C117.7 180.736 114.746 179.723 112.659 177.696C110.602 175.64 109.573 172.854 109.573 169.338C109.573 165.821 110.602 163.05 112.659 161.024C114.746 158.968 117.7 157.94 121.521 157.94C125.342 157.94 128.296 158.968 130.383 161.024C132.47 163.05 133.513 165.821 133.513 169.338C133.513 172.854 132.47 175.64 130.383 177.696C128.296 179.723 125.342 180.736 121.521 180.736ZM121.521 176.534C123.608 176.534 125.195 175.923 126.283 174.701C127.37 173.48 127.914 171.692 127.914 169.338C127.914 167.013 127.37 165.255 126.283 164.063C125.195 162.842 123.608 162.231 121.521 162.231C119.464 162.231 117.876 162.842 116.759 164.063C115.672 165.255 115.128 167.013 115.128 169.338C115.128 171.662 115.672 173.45 116.759 174.701C117.876 175.923 119.464 176.534 121.521 176.534Z" fill="#E0E0E0"/>
<path d="M139.954 180.065C139.366 180.065 138.94 179.931 138.675 179.663C138.411 179.395 138.279 178.993 138.279 178.456V159.817C138.279 159.37 138.352 159.057 138.499 158.878C138.646 158.7 138.955 158.61 139.425 158.61H141.762C142.085 158.61 142.32 158.685 142.467 158.834C142.614 158.953 142.702 159.176 142.732 159.504L142.864 161.381C143.716 160.279 144.686 159.43 145.774 158.834C146.891 158.238 148.213 157.94 149.742 157.94C151.035 157.94 152.152 158.238 153.092 158.834C154.062 159.4 154.768 160.249 155.209 161.381C156.825 159.087 159.162 157.94 162.219 157.94C164.305 157.94 165.951 158.58 167.156 159.862C168.391 161.143 169.008 163.05 169.008 165.583V178.456C169.008 178.993 168.876 179.395 168.611 179.663C168.376 179.931 167.95 180.065 167.333 180.065H165.393C164.805 180.065 164.379 179.931 164.114 179.663C163.85 179.395 163.718 178.993 163.718 178.456V165.896C163.718 164.525 163.424 163.542 162.836 162.946C162.277 162.35 161.425 162.052 160.279 162.052C159.074 162.052 158.089 162.454 157.325 163.259C156.59 164.063 156.223 165.151 156.223 166.522V178.456C156.223 178.993 156.09 179.395 155.826 179.663C155.561 179.931 155.135 180.065 154.547 180.065H152.74C152.152 180.065 151.726 179.931 151.461 179.663C151.196 179.395 151.064 178.993 151.064 178.456V165.672C151.064 164.421 150.8 163.512 150.271 162.946C149.771 162.35 148.963 162.052 147.846 162.052C146.582 162.052 145.553 162.484 144.76 163.348C143.966 164.183 143.569 165.285 143.569 166.656V178.456C143.569 178.993 143.437 179.395 143.172 179.663C142.937 179.931 142.511 180.065 141.894 180.065H139.954Z" fill="#E0E0E0"/>
<path d="M184.817 180.736C182.818 180.736 180.864 180.468 178.953 179.931C177.043 179.365 175.529 178.665 174.412 177.83V151.324C174.412 150.758 174.53 150.341 174.765 150.073C175.029 149.805 175.455 149.67 176.043 149.67H178.292C178.88 149.67 179.306 149.805 179.57 150.073C179.835 150.341 179.967 150.758 179.967 151.324V160.04C180.731 159.355 181.731 158.834 182.965 158.476C184.2 158.118 185.522 157.94 186.933 157.94C190.254 157.94 192.812 158.863 194.604 160.711C196.397 162.558 197.294 165.151 197.294 168.488C197.294 172.362 196.236 175.372 194.119 177.517C192.033 179.663 188.932 180.736 184.817 180.736ZM184.552 176.668C186.992 176.668 188.785 176.013 189.931 174.701C191.107 173.361 191.695 171.334 191.695 168.623C191.695 166.358 191.224 164.704 190.284 163.661C189.373 162.588 187.83 162.052 185.655 162.052C184.156 162.052 182.833 162.439 181.687 163.214C180.54 163.959 179.967 165.062 179.967 166.522V175.595C180.467 175.923 181.143 176.191 181.995 176.4C182.848 176.579 183.7 176.668 184.552 176.668Z" fill="#E0E0E0"/>
<path d="M213.483 180.736C211.19 180.736 209.118 180.348 207.266 179.574C205.414 178.769 203.93 177.547 202.813 175.908C201.726 174.24 201.182 172.169 201.182 169.695C201.182 165.851 202.196 162.931 204.224 160.934C206.252 158.938 209.132 157.94 212.865 157.94C216.569 157.94 219.361 158.908 221.242 160.845C223.153 162.782 224.108 165.583 224.108 169.248C224.108 170.291 223.638 170.813 222.697 170.813H206.517C206.517 172.779 207.193 174.299 208.545 175.372C209.897 176.415 211.778 176.936 214.188 176.936C216.51 176.936 218.597 176.4 220.448 175.327C220.654 175.208 220.816 175.148 220.933 175.148C221.139 175.148 221.301 175.283 221.418 175.551L222.477 177.473C222.565 177.652 222.609 177.815 222.609 177.964C222.609 178.173 222.477 178.367 222.212 178.546C221.007 179.291 219.699 179.842 218.288 180.199C216.907 180.557 215.305 180.736 213.483 180.736ZM218.994 167.505C218.994 165.658 218.479 164.212 217.45 163.169C216.451 162.126 214.937 161.605 212.909 161.605C210.852 161.605 209.265 162.141 208.148 163.214C207.06 164.287 206.517 165.717 206.517 167.505H218.994Z" fill="#E0E0E0"/>
<path d="M229.824 172.556C229.295 172.556 228.854 172.362 228.501 171.975C228.149 171.587 227.972 171.126 227.972 170.589V169.785C227.972 169.218 228.149 168.742 228.501 168.354C228.854 167.967 229.295 167.773 229.824 167.773H230.662C231.191 167.773 231.632 167.967 231.984 168.354C232.337 168.742 232.513 169.218 232.513 169.785V170.589C232.513 171.126 232.337 171.587 231.984 171.975C231.632 172.362 231.191 172.556 230.662 172.556H229.824Z" fill="#E0E0E0"/>
<path d="M245.813 180.736C242.933 180.736 240.64 179.857 238.936 178.099C237.231 176.311 236.378 173.808 236.378 170.589C236.378 168.086 236.922 165.881 238.01 163.974C239.097 162.037 240.64 160.547 242.639 159.504C244.667 158.461 247.018 157.94 249.693 157.94C253.426 157.94 256.586 158.834 259.172 160.622V178.858C259.172 179.305 259.069 179.618 258.863 179.797C258.687 179.976 258.364 180.065 257.893 180.065H255.469C255.145 180.065 254.895 180.006 254.719 179.886C254.572 179.737 254.469 179.514 254.411 179.216L254.058 177.473C253.147 178.605 252.015 179.44 250.663 179.976C249.34 180.482 247.724 180.736 245.813 180.736ZM247.93 176.668C249.487 176.668 250.854 176.206 252.03 175.283C253.235 174.359 253.837 173.137 253.837 171.617V162.901C253.22 162.573 252.588 162.35 251.942 162.231C251.324 162.082 250.56 162.007 249.649 162.007C247.327 162.007 245.461 162.752 244.05 164.242C242.639 165.732 241.934 167.788 241.934 170.41C241.934 172.556 242.419 174.135 243.388 175.148C244.388 176.162 245.901 176.668 247.93 176.668Z" fill="#E0E0E0"/>
<path d="M266.501 180.065C265.913 180.065 265.487 179.931 265.222 179.663C264.958 179.395 264.826 178.993 264.826 178.456V159.817C264.826 159.37 264.899 159.057 265.046 158.878C265.193 158.7 265.502 158.61 265.972 158.61H268.485C269.132 158.61 269.47 158.908 269.499 159.504L269.587 161.292C271.586 159.057 274.452 157.94 278.184 157.94C280.565 157.94 282.476 158.595 283.916 159.906C285.385 161.188 286.12 163.125 286.12 165.717V178.456C286.12 178.993 285.988 179.395 285.724 179.663C285.488 179.931 285.077 180.065 284.489 180.065H282.152C281.565 180.065 281.138 179.931 280.874 179.663C280.609 179.395 280.477 178.993 280.477 178.456V166.075C280.477 164.615 280.139 163.587 279.463 162.991C278.816 162.365 277.758 162.052 276.289 162.052C274.731 162.052 273.364 162.484 272.188 163.348C271.042 164.183 270.469 165.27 270.469 166.611V178.456C270.469 178.993 270.337 179.395 270.072 179.663C269.837 179.931 269.411 180.065 268.794 180.065H266.501Z" fill="#E0E0E0"/>
<path d="M292.5 172.556C291.971 172.556 291.53 172.362 291.177 171.975C290.825 171.587 290.648 171.126 290.648 170.589V169.785C290.648 169.218 290.825 168.742 291.177 168.354C291.53 167.967 291.971 167.773 292.5 167.773H293.338C293.867 167.773 294.308 167.967 294.66 168.354C295.013 168.742 295.189 169.218 295.189 169.785V170.589C295.189 171.126 295.013 171.587 294.66 171.975C294.308 172.362 293.867 172.556 293.338 172.556H292.5Z" fill="#E0E0E0"/>
<path d="M311.575 180.736C303.228 180.736 299.054 176.922 299.054 169.293C299.054 167.058 299.481 165.091 300.333 163.393C301.185 161.665 302.405 160.324 303.992 159.37C305.609 158.416 307.505 157.94 309.68 157.94C312.766 157.94 315 158.64 316.381 160.04V151.324C316.381 150.758 316.513 150.341 316.778 150.073C317.042 149.805 317.469 149.67 318.056 149.67H320.261C320.849 149.67 321.275 149.805 321.539 150.073C321.804 150.341 321.936 150.758 321.936 151.324V177.83C320.819 178.665 319.32 179.365 317.439 179.931C315.558 180.468 313.603 180.736 311.575 180.736ZM311.708 176.668C313.677 176.668 315.235 176.311 316.381 175.595V166.477C316.381 165.017 315.881 163.914 314.882 163.169C313.883 162.424 312.589 162.052 311.002 162.052C308.857 162.052 307.255 162.707 306.197 164.019C305.139 165.33 304.609 167.133 304.609 169.427C304.609 171.99 305.197 173.837 306.373 174.97C307.549 176.102 309.327 176.668 311.708 176.668Z" fill="#E0E0E0"/>
<path d="M338.008 180.736C334.187 180.736 331.233 179.723 329.146 177.696C327.089 175.64 326.06 172.854 326.06 169.338C326.06 165.821 327.089 163.05 329.146 161.024C331.233 158.968 334.187 157.94 338.008 157.94C341.829 157.94 344.783 158.968 346.87 161.024C348.957 163.05 350 165.821 350 169.338C350 172.854 348.957 175.64 346.87 177.696C344.783 179.723 341.829 180.736 338.008 180.736ZM338.008 176.534C340.095 176.534 341.682 175.923 342.77 174.701C343.857 173.48 344.401 171.692 344.401 169.338C344.401 167.013 343.857 165.255 342.77 164.063C341.682 162.842 340.095 162.231 338.008 162.231C335.951 162.231 334.363 162.842 333.246 164.063C332.159 165.255 331.615 167.013 331.615 169.338C331.615 171.662 332.159 173.45 333.246 174.701C334.363 175.923 335.951 176.534 338.008 176.534Z" fill="#E0E0E0"/>
<g clip-path="url(#clip0_1418_793)">
<path d="M175 3.5C143.796 3.5 118.5 28.7959 118.5 60C118.5 91.2041 143.796 116.5 175 116.5C206.204 116.5 231.5 91.2041 231.5 60C231.5 28.7959 206.204 3.5 175 3.5Z" fill="#FF9629" stroke="#371507" stroke-width="7"/>
<path d="M183.521 6.74226C159.464 6.74226 139.962 26.2442 139.962 50.3011C139.962 74.3579 159.464 93.8599 183.521 93.8599C207.578 93.8599 227.08 74.3579 227.08 50.3011C227.08 26.2442 207.578 6.74226 183.521 6.74226Z" fill="#994F1C" stroke="#371507" stroke-width="7"/>
<path d="M152.806 38.0634C135.246 38.0634 121.011 52.2981 121.011 69.8575C121.011 87.4169 135.246 101.652 152.806 101.652C170.365 101.652 184.6 87.4169 184.6 69.8575C184.6 52.2981 170.365 38.0634 152.806 38.0634Z" fill="#FCC000" stroke="#371507" stroke-width="7"/>
</g>
<defs>
<clipPath id="clip0_1418_793">
<rect width="120" height="120" fill="white" transform="translate(115)"/>
</clipPath>
</defs>
</svg>
