<svg width="580" height="119" viewBox="0 0 580 119" fill="none" xmlns="http://www.w3.org/2000/svg">
<path d="M37 25.5C17.9462 25.5 2.5 40.9462 2.5 60C2.5 79.0538 17.9462 94.5 37 94.5C56.0538 94.5 71.5 79.0538 71.5 60C71.5 40.9462 56.0538 25.5 37 25.5Z" fill="#FF9629" stroke="#371507" stroke-width="5"/>
<path d="M42.2558 27.4994C27.6094 27.4994 15.7362 39.3726 15.7362 54.019C15.7362 68.6653 27.6094 80.5386 42.2558 80.5386C56.9022 80.5386 68.7754 68.6653 68.7754 54.019C68.7754 39.3726 56.9022 27.4994 42.2558 27.4994Z" fill="#994F1C" stroke="#371507" stroke-width="5"/>
<path d="M23.3134 46.8144C12.6738 46.8144 4.04873 55.4394 4.04873 66.079C4.04873 76.7186 12.6738 85.3438 23.3134 85.3438C33.953 85.3438 42.5781 76.7186 42.5781 66.079C42.5781 55.4394 33.953 46.8144 23.3134 46.8144Z" fill="#FCC000" stroke="#371507" stroke-width="5"/>
<path d="M118.9 82.6C111.94 82.6 106.54 80.78 102.7 77.14C98.9 73.46 97 68.18 97 61.3C97 54.38 98.86 49.1 102.58 45.46C106.34 41.82 111.7 40 118.66 40C121.58 40 124.22 40.3 126.58 40.9C128.98 41.46 131 42.28 132.64 43.36C133.04 43.64 133.24 43.96 133.24 44.32C133.24 44.64 133.12 44.98 132.88 45.34L130.78 49C130.5 49.44 130.22 49.66 129.94 49.66C129.7 49.66 129.36 49.54 128.92 49.3C126.36 47.86 123.34 47.14 119.86 47.14C115.74 47.14 112.54 48.34 110.26 50.74C107.98 53.1 106.84 56.62 106.84 61.3C106.84 66.02 108.02 69.56 110.38 71.92C112.78 74.28 116.04 75.46 120.16 75.46C123.92 75.46 127.08 74.74 129.64 73.3C130.08 73.06 130.42 72.94 130.66 72.94C130.94 72.94 131.22 73.16 131.5 73.6L133.84 77.62C134 77.9 134.08 78.14 134.08 78.34C134.08 78.58 133.84 78.88 133.36 79.24C130.24 81.48 125.42 82.6 118.9 82.6Z" fill="#371507"/>
<path d="M148.229 82.6C144.389 82.6 141.309 81.4 138.989 79C136.709 76.6 135.569 73.22 135.569 68.86C135.569 65.5 136.349 62.56 137.909 60.04C139.469 57.48 141.649 55.5 144.449 54.1C147.249 52.7 150.489 52 154.169 52C157.009 52 159.509 52.32 161.669 52.96C163.869 53.6 165.869 54.52 167.669 55.72V79.96C167.669 80.64 167.529 81.1 167.249 81.34C167.009 81.58 166.509 81.7 165.749 81.7H161.009C160.569 81.7 160.229 81.62 159.989 81.46C159.789 81.3 159.629 81.04 159.509 80.68L158.849 78.58C157.649 79.98 156.189 81 154.469 81.64C152.749 82.28 150.669 82.6 148.229 82.6ZM151.889 75.76C153.649 75.76 155.169 75.26 156.449 74.26C157.769 73.26 158.429 71.9 158.429 70.18V59.68C157.229 59.08 155.789 58.78 154.109 58.78C151.469 58.78 149.349 59.66 147.749 61.42C146.189 63.14 145.409 65.56 145.409 68.68C145.409 71.08 145.949 72.86 147.029 74.02C148.109 75.18 149.729 75.76 151.889 75.76Z" fill="#371507"/>
<path d="M177.16 81.7C176.16 81.7 175.44 81.5 175 81.1C174.6 80.66 174.4 80 174.4 79.12V54.64C174.4 53.96 174.52 53.5 174.76 53.26C175 53.02 175.48 52.9 176.2 52.9H181C181.48 52.9 181.84 52.98 182.08 53.14C182.32 53.3 182.46 53.58 182.5 53.98L182.68 56.08C183.92 54.8 185.48 53.8 187.36 53.08C189.24 52.36 191.38 52 193.78 52C197.06 52 199.68 52.9 201.64 54.7C203.64 56.46 204.64 59.1 204.64 62.62V79.12C204.64 80 204.42 80.66 203.98 81.1C203.58 81.5 202.9 81.7 201.94 81.7H197.44C196.44 81.7 195.72 81.5 195.28 81.1C194.88 80.66 194.68 80 194.68 79.12V63.22C194.68 61.66 194.34 60.54 193.66 59.86C192.98 59.18 191.86 58.84 190.3 58.84C188.62 58.84 187.2 59.3 186.04 60.22C184.88 61.1 184.3 62.26 184.3 63.7V79.12C184.3 80 184.1 80.66 183.7 81.1C183.3 81.5 182.6 81.7 181.6 81.7H177.16Z" fill="#371507"/>
<path d="M227.355 82.6C215.675 82.6 209.835 77.46 209.835 67.18C209.835 64.18 210.395 61.54 211.515 59.26C212.675 56.94 214.355 55.16 216.555 53.92C218.755 52.64 221.375 52 224.415 52C226.135 52 227.675 52.2 229.035 52.6C230.435 52.96 231.555 53.5 232.395 54.22V43.54C232.395 42.62 232.595 41.96 232.995 41.56C233.395 41.12 234.095 40.9 235.095 40.9H239.415C240.375 40.9 241.055 41.12 241.455 41.56C241.895 42 242.115 42.66 242.115 43.54V78.52C240.475 79.72 238.335 80.7 235.695 81.46C233.055 82.22 230.275 82.6 227.355 82.6ZM227.595 75.76C229.555 75.76 231.155 75.42 232.395 74.74V63.76C232.395 62.12 231.875 60.9 230.835 60.1C229.795 59.26 228.395 58.84 226.635 58.84C224.275 58.84 222.515 59.6 221.355 61.12C220.235 62.6 219.675 64.66 219.675 67.3C219.675 70.34 220.335 72.52 221.655 73.84C222.975 75.12 224.955 75.76 227.595 75.76Z" fill="#371507"/>
<path d="M263.563 82.6C258.243 82.6 254.103 81.24 251.143 78.52C248.223 75.76 246.763 72.02 246.763 67.3C246.763 62.58 248.223 58.86 251.143 56.14C254.103 53.38 258.243 52 263.563 52C268.923 52 273.063 53.38 275.983 56.14C278.943 58.86 280.423 62.58 280.423 67.3C280.423 72.02 278.943 75.76 275.983 78.52C273.063 81.24 268.923 82.6 263.563 82.6ZM263.563 75.46C265.843 75.46 267.583 74.78 268.783 73.42C269.983 72.06 270.583 70.02 270.583 67.3C270.583 64.62 269.983 62.6 268.783 61.24C267.583 59.88 265.843 59.2 263.563 59.2C261.323 59.2 259.603 59.88 258.403 61.24C257.203 62.6 256.603 64.62 256.603 67.3C256.603 69.98 257.203 72.02 258.403 73.42C259.603 74.78 261.323 75.46 263.563 75.46Z" fill="#371507"/>
<path d="M288.706 81.7C287.706 81.7 286.986 81.5 286.546 81.1C286.146 80.66 285.946 80 285.946 79.12V54.64C285.946 53.96 286.066 53.5 286.306 53.26C286.546 53.02 287.026 52.9 287.746 52.9H292.186C292.666 52.9 293.006 52.98 293.206 53.14C293.446 53.3 293.586 53.58 293.626 53.98L293.866 56.14C295.026 54.82 296.326 53.8 297.766 53.08C299.206 52.36 300.926 52 302.926 52C306.406 52 308.866 53.38 310.306 56.14C312.546 53.38 315.626 52 319.546 52C322.506 52 324.826 52.88 326.506 54.64C328.186 56.36 329.026 58.98 329.026 62.5V79.12C329.026 80 328.806 80.66 328.366 81.1C327.966 81.5 327.286 81.7 326.326 81.7H322.546C321.546 81.7 320.846 81.5 320.446 81.1C320.046 80.66 319.846 80 319.846 79.12V63.1C319.846 61.58 319.546 60.5 318.946 59.86C318.386 59.18 317.526 58.84 316.366 58.84C315.046 58.84 313.966 59.28 313.126 60.16C312.326 61.04 311.926 62.2 311.926 63.64V79.12C311.926 80 311.706 80.66 311.266 81.1C310.866 81.5 310.186 81.7 309.226 81.7H305.806C304.806 81.7 304.086 81.5 303.646 81.1C303.246 80.66 303.046 80 303.046 79.12V62.86C303.046 61.5 302.766 60.5 302.206 59.86C301.686 59.18 300.866 58.84 299.746 58.84C298.386 58.84 297.266 59.3 296.386 60.22C295.546 61.1 295.126 62.28 295.126 63.76V79.12C295.126 80 294.926 80.66 294.526 81.1C294.126 81.5 293.426 81.7 292.426 81.7H288.706Z" fill="#371507"/>
<path d="M350.352 82.6C347.472 82.6 344.672 82.22 341.952 81.46C339.272 80.7 337.112 79.72 335.472 78.52V43.54C335.472 42.66 335.672 42 336.072 41.56C336.512 41.12 337.212 40.9 338.172 40.9H342.492C343.492 40.9 344.192 41.12 344.592 41.56C344.992 41.96 345.192 42.62 345.192 43.54V54.22C346.112 53.5 347.312 52.96 348.792 52.6C350.272 52.2 351.812 52 353.412 52C358.052 52 361.592 53.24 364.032 55.72C366.512 58.16 367.752 61.64 367.752 66.16C367.752 71.36 366.272 75.4 363.312 78.28C360.392 81.16 356.072 82.6 350.352 82.6ZM349.872 75.76C352.592 75.76 354.612 74.98 355.932 73.42C357.252 71.82 357.912 69.44 357.912 66.28C357.912 63.72 357.392 61.84 356.352 60.64C355.352 59.44 353.692 58.84 351.372 58.84C349.692 58.84 348.232 59.28 346.992 60.16C345.792 61 345.192 62.24 345.192 63.88V74.74C345.752 75.06 346.452 75.32 347.292 75.52C348.132 75.68 348.992 75.76 349.872 75.76Z" fill="#371507"/>
<path d="M389.179 82.6C385.939 82.6 383.019 82.06 380.419 80.98C377.859 79.86 375.819 78.2 374.299 76C372.819 73.76 372.079 71 372.079 67.72C372.079 62.6 373.479 58.7 376.279 56.02C379.119 53.34 383.159 52 388.399 52C393.559 52 397.459 53.3 400.099 55.9C402.779 58.5 404.119 62.2 404.119 67C404.119 68.68 403.359 69.52 401.839 69.52H381.439C381.439 71.68 382.239 73.36 383.839 74.56C385.479 75.72 387.719 76.3 390.559 76.3C392.239 76.3 393.699 76.14 394.939 75.82C396.179 75.46 397.379 74.96 398.539 74.32C398.939 74.12 399.219 74.02 399.379 74.02C399.659 74.02 399.919 74.24 400.159 74.68L401.899 77.92C402.059 78.2 402.139 78.44 402.139 78.64C402.139 78.96 401.919 79.28 401.479 79.6C399.879 80.64 398.079 81.4 396.079 81.88C394.079 82.36 391.779 82.6 389.179 82.6ZM395.239 64.36C395.239 62.36 394.679 60.8 393.559 59.68C392.439 58.56 390.739 58 388.459 58C386.179 58 384.439 58.58 383.239 59.74C382.039 60.86 381.439 62.4 381.439 64.36H395.239Z" fill="#371507"/>
<path d="M411.301 71.2002C410.461 71.2002 409.761 70.9202 409.201 70.3602C408.681 69.7602 408.421 69.0402 408.421 68.2002V67.0002C408.421 66.1202 408.681 65.4002 409.201 64.8402C409.761 64.2402 410.461 63.9402 411.301 63.9402H412.561C413.401 63.9402 414.081 64.2402 414.601 64.8402C415.161 65.4002 415.441 66.1202 415.441 67.0002V68.2002C415.441 69.0402 415.161 69.7602 414.601 70.3602C414.081 70.9202 413.401 71.2002 412.561 71.2002H411.301Z" fill="#371507"/>
<path d="M432.404 82.6C428.564 82.6 425.484 81.4 423.164 79C420.884 76.6 419.744 73.22 419.744 68.86C419.744 65.5 420.524 62.56 422.084 60.04C423.644 57.48 425.824 55.5 428.624 54.1C431.424 52.7 434.664 52 438.344 52C441.184 52 443.684 52.32 445.844 52.96C448.044 53.6 450.044 54.52 451.844 55.72V79.96C451.844 80.64 451.704 81.1 451.424 81.34C451.184 81.58 450.684 81.7 449.924 81.7H445.184C444.744 81.7 444.404 81.62 444.164 81.46C443.964 81.3 443.804 81.04 443.684 80.68L443.024 78.58C441.824 79.98 440.364 81 438.644 81.64C436.924 82.28 434.844 82.6 432.404 82.6ZM436.064 75.76C437.824 75.76 439.344 75.26 440.624 74.26C441.944 73.26 442.604 71.9 442.604 70.18V59.68C441.404 59.08 439.964 58.78 438.284 58.78C435.644 58.78 433.524 59.66 431.924 61.42C430.364 63.14 429.584 65.56 429.584 68.68C429.584 71.08 430.124 72.86 431.204 74.02C432.284 75.18 433.904 75.76 436.064 75.76Z" fill="#371507"/>
<path d="M461.335 81.7C460.335 81.7 459.615 81.5 459.175 81.1C458.775 80.66 458.575 80 458.575 79.12V54.64C458.575 53.96 458.695 53.5 458.935 53.26C459.175 53.02 459.655 52.9 460.375 52.9H465.175C465.655 52.9 466.015 52.98 466.255 53.14C466.495 53.3 466.635 53.58 466.675 53.98L466.855 56.08C468.095 54.8 469.655 53.8 471.535 53.08C473.415 52.36 475.555 52 477.955 52C481.235 52 483.855 52.9 485.815 54.7C487.815 56.46 488.815 59.1 488.815 62.62V79.12C488.815 80 488.595 80.66 488.155 81.1C487.755 81.5 487.075 81.7 486.115 81.7H481.615C480.615 81.7 479.895 81.5 479.455 81.1C479.055 80.66 478.855 80 478.855 79.12V63.22C478.855 61.66 478.515 60.54 477.835 59.86C477.155 59.18 476.035 58.84 474.475 58.84C472.795 58.84 471.375 59.3 470.215 60.22C469.055 61.1 468.475 62.26 468.475 63.7V79.12C468.475 80 468.275 80.66 467.875 81.1C467.475 81.5 466.775 81.7 465.775 81.7H461.335Z" fill="#371507"/>
<path d="M496.89 71.2002C496.05 71.2002 495.35 70.9202 494.79 70.3602C494.27 69.7602 494.01 69.0402 494.01 68.2002V67.0002C494.01 66.1202 494.27 65.4002 494.79 64.8402C495.35 64.2402 496.05 63.9402 496.89 63.9402H498.15C498.99 63.9402 499.67 64.2402 500.19 64.8402C500.75 65.4002 501.03 66.1202 501.03 67.0002V68.2002C501.03 69.0402 500.75 69.7602 500.19 70.3602C499.67 70.9202 498.99 71.2002 498.15 71.2002H496.89Z" fill="#371507"/>
<path d="M522.853 82.6C511.173 82.6 505.333 77.46 505.333 67.18C505.333 64.18 505.893 61.54 507.013 59.26C508.173 56.94 509.853 55.16 512.053 53.92C514.253 52.64 516.873 52 519.913 52C521.633 52 523.173 52.2 524.533 52.6C525.933 52.96 527.053 53.5 527.893 54.22V43.54C527.893 42.62 528.093 41.96 528.493 41.56C528.893 41.12 529.593 40.9 530.593 40.9H534.913C535.873 40.9 536.553 41.12 536.953 41.56C537.393 42 537.613 42.66 537.613 43.54V78.52C535.973 79.72 533.833 80.7 531.193 81.46C528.553 82.22 525.773 82.6 522.853 82.6ZM523.093 75.76C525.053 75.76 526.653 75.42 527.893 74.74V63.76C527.893 62.12 527.373 60.9 526.333 60.1C525.293 59.26 523.893 58.84 522.133 58.84C519.773 58.84 518.013 59.6 516.853 61.12C515.733 62.6 515.173 64.66 515.173 67.3C515.173 70.34 515.833 72.52 517.153 73.84C518.473 75.12 520.453 75.76 523.093 75.76Z" fill="#371507"/>
<path d="M559.061 82.6C553.741 82.6 549.601 81.24 546.641 78.52C543.721 75.76 542.261 72.02 542.261 67.3C542.261 62.58 543.721 58.86 546.641 56.14C549.601 53.38 553.741 52 559.061 52C564.421 52 568.561 53.38 571.481 56.14C574.441 58.86 575.921 62.58 575.921 67.3C575.921 72.02 574.441 75.76 571.481 78.52C568.561 81.24 564.421 82.6 559.061 82.6ZM559.061 75.46C561.341 75.46 563.081 74.78 564.281 73.42C565.481 72.06 566.081 70.02 566.081 67.3C566.081 64.62 565.481 62.6 564.281 61.24C563.081 59.88 561.341 59.2 559.061 59.2C556.821 59.2 555.101 59.88 553.901 61.24C552.701 62.6 552.101 64.62 552.101 67.3C552.101 69.98 552.701 72.02 553.901 73.42C555.101 74.78 556.821 75.46 559.061 75.46Z" fill="#371507"/>
</svg>
